<svg width="62" height="62" viewBox="0 0 62 62" fill="none" xmlns="http://www.w3.org/2000/svg">
<path d="M10.4854 0.00390625C12.2364 0.0929075 13.6289 1.54129 13.6289 3.31445V5.5752H47.4941V3.31445C47.4941 1.48393 48.9781 6.59861e-06 50.8086 0H57.8086L57.9795 0.00390625C59.7305 0.0929075 61.123 1.54129 61.123 3.31445V10.3145L61.1182 10.4854C61.032 12.1797 59.6739 13.5379 57.9795 13.624L57.8086 13.6289H55.3418V47.7012H57.8086L57.9795 47.7051C59.7305 47.7941 61.123 49.2425 61.123 51.0156V58.0156L61.1182 58.1865C61.0318 59.8807 59.6737 61.2391 57.9795 61.3252L57.8086 61.3301H50.8086L50.6377 61.3252C48.9434 61.2391 47.5844 59.8808 47.498 58.1865L47.4941 58.0156V55.5469H13.6289V58.0156L13.624 58.1865C13.5377 59.8807 12.1796 61.2391 10.4854 61.3252L10.3145 61.3301H3.31445L3.14355 61.3252C1.44925 61.2391 0.0902378 59.8808 0.00390625 58.1865L0 58.0156V51.0156C4.73287e-06 49.1851 1.48393 47.7012 3.31445 47.7012H6.19531V13.6289H3.31445L3.14355 13.624C1.44911 13.5379 0.0900317 12.1798 0.00390625 10.4854L0 10.3145V3.31445C4.73287e-06 1.48393 1.48393 6.59861e-06 3.31445 0H10.3145L10.4854 0.00390625ZM3.31445 49.4658C2.45837 49.4658 1.76465 50.1595 1.76465 51.0156V58.0156C1.76496 58.8715 2.45856 59.5654 3.31445 59.5654H10.3145C11.1703 59.5653 11.8639 58.8714 11.8643 58.0156V55.5469H9.50977C7.67924 55.5469 6.19531 54.0629 6.19531 52.2324V49.4658H3.31445ZM55.3418 52.2324L55.3369 52.4033C55.2511 54.0981 53.892 55.457 52.1973 55.543L52.0273 55.5469H49.2588V58.0156C49.2591 58.8715 49.9527 59.5654 50.8086 59.5654H57.8086C58.6644 59.5653 59.3581 58.8714 59.3584 58.0156V51.0156C59.3584 50.1596 58.6646 49.4659 57.8086 49.4658H55.3418V52.2324ZM7.95996 52.2324C7.95996 53.0885 8.65368 53.7832 9.50977 53.7832H11.8643V51.0156C11.8643 50.1596 11.1705 49.4659 10.3145 49.4658H7.95996V52.2324ZM13.6289 10.3145L13.624 10.4854C13.5379 12.1797 12.1797 13.5379 10.4854 13.624L10.3145 13.6289H7.95996V47.7012H10.3145L10.4854 47.7051C12.2364 47.7941 13.6289 49.2425 13.6289 51.0156V53.7832H47.4941V51.0156C47.4941 49.1851 48.9781 47.7012 50.8086 47.7012H53.5771V13.6289H50.8086L50.6377 13.624C48.9432 13.5379 47.5842 12.1798 47.498 10.4854L47.4941 10.3145V7.33984H13.6289V10.3145ZM50.8086 49.4658C49.9525 49.4658 49.2588 50.1595 49.2588 51.0156V53.7832H52.0273C52.8831 53.7828 53.5771 53.0882 53.5771 52.2324V49.4658H50.8086ZM23.9912 26.7607L23.9727 27.1396C25.2606 27.025 26.8665 27.466 26.7256 29.0449C26.5756 30.0859 25.6052 30.7386 24.6348 30.915L26.6816 32.5205L25.5615 33.8447L23.6904 31.7979L23.5586 33.9414C22.9411 33.9326 22.3235 33.9239 21.7061 33.8975C21.5914 31.5067 21.4857 29.1066 21.3887 26.707C22.2443 26.7247 23.118 26.7431 23.9912 26.7607ZM30.8506 26.9277C31.4063 29.0361 31.9618 31.1358 32.5264 33.2354C32.1736 33.3412 31.8118 33.4469 31.4502 33.5615L30.9736 32.168L29.3682 32.2559L29.0508 33.9414C28.3891 33.8091 27.7095 33.6763 27.0391 33.5264C27.6477 31.3652 28.2654 29.2129 28.8652 27.043L30.8506 26.9277ZM35.2158 26.8838L37.0156 30.9326L36.8926 27.0693C37.4836 27.087 38.0838 27.0956 38.6748 27.1133C38.5778 29.2746 38.4799 31.4276 38.3828 33.5801C37.9596 33.5713 37.5277 33.5616 37.1045 33.5527L34.8809 29.8037L34.793 33.8174C34.1755 33.8086 33.5491 33.7999 32.9316 33.7734C32.817 31.4711 32.7201 29.1511 32.6143 26.8311C33.4785 26.8487 34.3428 26.8662 35.2158 26.8838ZM18.3916 26.7158L18.374 27.1221C20.3322 27.14 22.087 28.7096 20.085 30.1562C20.7995 30.5621 21.0373 31.295 20.7197 32.0537C20.2432 33.0591 19.0086 33.3768 17.9766 33.4297L17.959 33.7559C17.3415 33.747 16.7151 33.7207 16.0977 33.7119C16.0006 31.3653 15.8861 29.0185 15.7803 26.6543L18.3916 26.7158ZM41.6006 26.5928L41.5742 26.9014C43.5236 26.9809 44.5905 28.2159 44.6523 30.1035C44.6876 32.2737 43.4264 33.6767 41.168 33.6943L39.3066 33.6768C39.192 31.295 39.0951 28.9131 38.9893 26.5312C39.8538 26.5489 40.7273 26.5751 41.6006 26.5928ZM41.248 32.3887C42.6503 32.2651 43.3556 31.577 43.2764 30.1748C43.197 29.0191 42.6146 28.6133 41.4766 28.5957L41.248 32.3887ZM17.9854 32.1064C20.1996 32.0359 19.7405 30.9423 18.0996 30.96L17.9854 32.1064ZM29.5977 31.0742L30.6211 31.1445L29.9502 29.1953L29.5977 31.0742ZM23.7969 30.0332C25.2435 30.1653 25.7372 27.9692 23.9023 28.3662L23.7969 30.0332ZM18.3379 28.542H18.2764L18.2148 29.6182C18.2237 29.6181 18.2499 29.6094 18.2588 29.6094C19.5115 29.4241 20.3581 28.4097 18.3379 28.542ZM3.31445 1.76465C2.45837 1.76466 1.76465 2.45837 1.76465 3.31445V10.3145C1.76473 11.1705 2.45841 11.8643 3.31445 11.8643H6.19531V8.88965C6.19545 7.05924 7.67933 5.5752 9.50977 5.5752H11.8643V3.31445C11.8643 2.45841 11.1705 1.76473 10.3145 1.76465H3.31445ZM9.50977 7.33984C8.65376 7.33985 7.9601 8.03368 7.95996 8.88965V11.8643H10.3145C11.1704 11.8642 11.8642 11.1704 11.8643 10.3145V7.33984H9.50977ZM49.2588 10.3145C49.2589 11.1705 49.9526 11.8643 50.8086 11.8643H53.5771V8.88965C53.577 8.03395 52.883 7.34028 52.0273 7.33984H49.2588V10.3145ZM50.8086 1.76465C49.9525 1.76466 49.2588 2.45837 49.2588 3.31445V5.5752H52.0273L52.1973 5.5791C53.9484 5.66794 55.3417 7.11649 55.3418 8.88965V11.8643H57.8086C58.6646 11.8642 59.3583 11.1704 59.3584 10.3145V3.31445C59.3584 2.45841 58.6646 1.76473 57.8086 1.76465H50.8086Z" fill="white"/>
</svg>
