<svg width="46" height="46" viewBox="0 0 46 46" fill="none" xmlns="http://www.w3.org/2000/svg">
<path d="M17 41H41V20H46V41C46 43.7614 43.7614 46 41 46H4C1.79086 46 8.05332e-08 44.2091 0 42V20H17V41ZM36 35H23V30H36V35ZM36 25H23V20H36V25ZM42 0C44.2091 0 46 1.79086 46 4V15H0V4C0 1.79086 1.79086 4.0266e-08 4 0H42ZM7.5 5C6.11929 5 5 6.11929 5 7.5C5 8.88071 6.11929 10 7.5 10C8.88071 10 10 8.88071 10 7.5C10 6.11929 8.88071 5 7.5 5ZM15.5 5C14.1193 5 13 6.11929 13 7.5C13 8.88071 14.1193 10 15.5 10C16.8807 10 18 8.88071 18 7.5C18 6.11929 16.8807 5 15.5 5ZM23 10H42V5H23V10Z" fill="#D9D9D9"/>
</svg>
