<svg width="90" height="80" viewBox="0 0 90 80" fill="none" xmlns="http://www.w3.org/2000/svg">
<path fill-rule="evenodd" clip-rule="evenodd" d="M69.1141 20.4086C72.2415 23.5421 76.4151 30.5021 76.6184 34.9993L53.2325 34.9726L53.204 13.3327C59.0213 13.4651 65.0072 16.2952 69.1143 20.4089L69.1141 20.4086ZM25.5879 2.52425C18.2476 4.35191 11.1246 11.4069 7.7902 16.1349C3.65092 22.0046 0.406063 30.0003 0.118429 39.0334C-0.18771 48.6435 2.37153 56.5712 6.45049 63.2984C9.66907 68.6076 16.6571 75.9132 22.6853 77.782C21.535 72.7889 20.4779 71.5536 21.1322 65.7056C21.6784 60.8224 21.3476 62.6884 18.6808 59.4807C16.7281 57.1324 12.611 50.6974 12.6329 46.4949L41.5718 46.5246C42.232 49.033 42.1637 53.2485 42.7847 56.1886C44.1436 62.6235 49.069 74.4088 52.2734 79.1811L52.498 80C53.8437 78.4041 52.3029 51.8722 53.1603 46.3057L76.697 46.4346C76.7493 49.7131 70.9237 60.3854 70.4755 59.2677C70.4531 59.2113 70.3533 59.3531 70.2854 59.3821C69.5708 61.9072 69.934 72.2693 70.016 75.8059C72.5602 75.2731 77.7721 69.9881 79.5662 67.765C95.2075 48.3842 90.9018 19.5215 71.6872 6.51538C58.9224 -2.12479 42.8859 0.319011 42.8859 0.319011L41.8603 34.9423L12.7344 34.982C12.5833 27.2842 19.8845 19.3565 23.3195 17.4946C23.1282 11.3194 25.6505 2.50439 25.5872 2.52403L25.5879 2.52425Z" fill="black"/>
</svg>
